<svg width="25" height="24" viewBox="0 0 25 24" fill="none" xmlns="http://www.w3.org/2000/svg">
<path fill-rule="evenodd" clip-rule="evenodd" d="M17.7359 0C21.7416 0 25 3.25977 25 7.26844V15.9656C25 19.9731 21.7416 23.234 17.7359 23.234H7.26538C3.25961 23.234 0 19.9731 0 15.9656V7.26844C0 3.25977 3.25961 0 7.26538 0H17.7359ZM17.7359 1.81772H7.26538C4.26135 1.81772 1.81695 4.26315 1.81695 7.26844V15.9656C1.81695 18.9709 4.26135 21.4163 7.26538 21.4163H17.7359C20.7399 21.4163 23.1831 18.9709 23.1831 15.9656V15.6263L19.1883 15.627C16.8905 15.627 15.0202 13.7572 15.019 11.4596C15.019 9.15959 16.8893 7.28856 19.1883 7.28734L23.1831 7.28662V7.26844C23.1831 4.26315 20.7399 1.81772 17.7359 1.81772ZM23.1831 9.10433L19.1883 9.10506C17.891 9.10627 16.836 10.1618 16.836 11.4584C16.836 12.7538 17.8922 13.8093 19.1883 13.8093L23.1831 13.8086V9.10433ZM19.7426 10.4744C20.2441 10.4744 20.6511 10.8816 20.6511 11.3833C20.6511 11.885 20.2441 12.2921 19.7426 12.2921H19.3647C18.8632 12.2921 18.4562 11.885 18.4562 11.3833C18.4562 10.8816 18.8632 10.4744 19.3647 10.4744H19.7426ZM12.9427 5.49932C13.4442 5.49932 13.8512 5.90649 13.8512 6.40817C13.8512 6.90986 13.4442 7.31703 12.9427 7.31703H6.40293C5.90145 7.31703 5.49446 6.90986 5.49446 6.40817C5.49446 5.90649 5.90145 5.49932 6.40293 5.49932H12.9427Z" fill="#626262"/>
</svg>
