<svg width="24" height="22" viewBox="0 0 24 22" fill="none" xmlns="http://www.w3.org/2000/svg">
<path d="M4.19302 12.5536C3.28785 11.735 2.42495 10.8653 1.50921 10.0573C1.48984 10.0397 1.43877 9.99028 1.43877 9.99028L4.55932 9.82798L0 5.55525L5.26373 0L4.14724 5.09658L6.9103 6.32265L16.6911 6.33676L19.5404 5.1248L19.5845 5.07894L18.5067 0.155244L18.5279 0.0299913L23.7053 5.55525L19.1759 9.82798L22.2348 9.99028L19.514 12.5536H17.7636C17.9185 13.111 17.9696 13.695 18.0224 14.2701C17.0574 15.3868 16.2262 16.6111 15.2981 17.7577C15.5182 18.3505 15.7225 18.9521 15.8669 19.5695L14.3683 21.1008C12.7217 21.1608 11.0558 21.1184 9.40217 21.1219L7.90881 19.6718L7.88768 19.5307L8.37548 17.6448C7.50025 16.5017 6.63558 15.3462 5.68814 14.263L5.93821 12.5553H4.18774L4.19302 12.5536Z" fill="#002E03"/>
</svg>
