<svg width="11" height="11" viewBox="0 0 11 11" fill="none" xmlns="http://www.w3.org/2000/svg">
<path fill-rule="evenodd" clip-rule="evenodd" d="M5.50001 9.89998C6.66696 9.89998 7.78612 9.43641 8.61128 8.61125C9.43644 7.78609 9.90001 6.66693 9.90001 5.49998C9.90001 4.33302 9.43644 3.21387 8.61128 2.38871C7.78612 1.56355 6.66696 1.09998 5.50001 1.09998C4.33305 1.09998 3.2139 1.56355 2.38874 2.38871C1.56358 3.21387 1.10001 4.33302 1.10001 5.49998C1.10001 6.66693 1.56358 7.78609 2.38874 8.61125C3.2139 9.43641 4.33305 9.89998 5.50001 9.89998ZM6.05001 3.29998C6.05001 3.15411 5.99206 3.01421 5.88892 2.91107C5.78577 2.80792 5.64588 2.74998 5.50001 2.74998C5.35414 2.74998 5.21424 2.80792 5.1111 2.91107C5.00795 3.01421 4.95001 3.15411 4.95001 3.29998V5.49998C4.95004 5.64583 5.008 5.7857 5.11116 5.88883L6.66656 7.44478C6.71766 7.49588 6.77832 7.53641 6.84509 7.56407C6.91185 7.59172 6.98341 7.60596 7.05568 7.60596C7.12795 7.60596 7.19951 7.59172 7.26627 7.56407C7.33304 7.53641 7.39371 7.49588 7.44481 7.44478C7.49591 7.39368 7.53644 7.33301 7.5641 7.26624C7.59175 7.19948 7.60599 7.12792 7.60599 7.05565C7.60599 6.98338 7.59175 6.91182 7.5641 6.84506C7.53644 6.77829 7.49591 6.71763 7.44481 6.66653L6.05001 5.27228V3.29998Z" fill="white"/>
</svg>
