<svg width="16" height="16" viewBox="0 0 16 16" fill="none" xmlns="http://www.w3.org/2000/svg">
<path fill-rule="evenodd" clip-rule="evenodd" d="M1.33334 4.66667C1.33334 4.29848 1.63182 4 2.00001 4L4.00001 4C4.3682 4 4.66668 4.29848 4.66668 4.66667C4.66668 5.03486 4.3682 5.33333 4.00001 5.33333L2.00001 5.33333C1.63182 5.33333 1.33334 5.03486 1.33334 4.66667Z" fill="#062D09"/>
<path fill-rule="evenodd" clip-rule="evenodd" d="M11.3333 11.3333C11.3333 10.9651 11.6318 10.6667 12 10.6667H14C14.3682 10.6667 14.6667 10.9651 14.6667 11.3333C14.6667 11.7015 14.3682 12 14 12H12C11.6318 12 11.3333 11.7015 11.3333 11.3333Z" fill="#062D09"/>
<path fill-rule="evenodd" clip-rule="evenodd" d="M6.00001 2C4.52725 2 3.33334 3.19391 3.33334 4.66667C3.33334 6.13943 4.52725 7.33333 6.00001 7.33333C7.24257 7.33333 8.28664 6.48349 8.58267 5.33333L14 5.33333C14.3682 5.33333 14.6667 5.03486 14.6667 4.66667C14.6667 4.29848 14.3682 4 14 4L8.58267 4C8.28664 2.84985 7.24257 2 6.00001 2ZM4.66668 4.66667C4.66668 3.93029 5.26363 3.33333 6.00001 3.33333C6.73639 3.33333 7.33334 3.93029 7.33334 4.66667C7.33334 5.40305 6.73639 6 6.00001 6C5.26363 6 4.66668 5.40305 4.66668 4.66667Z" fill="#062D09"/>
<path fill-rule="evenodd" clip-rule="evenodd" d="M1.33334 11.3333C1.33334 10.9651 1.63182 10.6667 2.00001 10.6667L7.33334 10.6667C7.36135 10.6667 7.38896 10.6684 7.41606 10.6717C7.71031 9.51902 8.75562 8.66667 10 8.66667C11.4728 8.66667 12.6667 9.86057 12.6667 11.3333C12.6667 12.8061 11.4728 14 10 14C8.75562 14 7.71031 13.1476 7.41606 11.9949C7.38896 11.9983 7.36135 12 7.33334 12L2.00001 12C1.63182 12 1.33334 11.7015 1.33334 11.3333ZM8.66668 11.3333C8.66668 10.597 9.26363 10 10 10C10.7364 10 11.3333 10.597 11.3333 11.3333C11.3333 12.0697 10.7364 12.6667 10 12.6667C9.26363 12.6667 8.66668 12.0697 8.66668 11.3333Z" fill="#062D09"/>
</svg>
