<svg width="11" height="11" viewBox="0 0 11 11" fill="none" xmlns="http://www.w3.org/2000/svg">
<mask id="mask0_154_594" style="mask-type:luminance" maskUnits="userSpaceOnUse" x="0" y="0" width="11" height="11">
<path d="M0 0H11V11H0V0Z" fill="white"/>
</mask>
<g mask="url(#mask0_154_594)">
<path d="M7.83364 8.38367C7.21471 9.0026 6.37528 9.3503 5.49999 9.3503C4.6247 9.3503 3.78526 9.0026 3.16634 8.38367C2.54741 7.76475 2.19971 6.92531 2.19971 6.05002C2.19971 5.17474 2.54741 4.3353 3.16634 3.71637C3.16634 4.95002 3.29999 6.05002 4.94999 6.60002C4.94999 5.50002 5.49999 2.20002 6.32499 1.65002C6.87499 2.75002 7.18904 3.07232 7.83309 3.71637C8.14007 4.02246 8.38353 4.3862 8.54946 4.78669C8.7154 5.18718 8.80054 5.61652 8.79999 6.05002C8.80058 6.48349 8.71551 6.91279 8.54967 7.31328C8.38384 7.71376 8.1405 8.07753 7.83364 8.38367Z" fill="white" stroke="white" stroke-width="2" stroke-linecap="round" stroke-linejoin="round"/>
<path d="M4.33343 8.31656C4.48563 8.47415 4.6677 8.59985 4.86901 8.68633C5.07032 8.7728 5.28683 8.81832 5.50591 8.82023C5.725 8.82213 5.94227 8.78038 6.14505 8.69742C6.34783 8.61445 6.53205 8.49194 6.68698 8.33701C6.8419 8.18209 6.96442 7.99787 7.04738 7.79509C7.13034 7.59231 7.17209 7.37504 7.17019 7.15595C7.16829 6.93686 7.12277 6.72035 7.03629 6.51905C6.94982 6.31774 6.82412 6.13567 6.66653 5.98346C6.34478 5.66116 6.18748 5.50001 5.91248 4.95001C5.49998 5.22501 5.22498 6.87501 5.22498 7.42501C4.33343 7.42501 3.84998 7.15001 3.84998 7.15001C3.84998 7.57241 4.01113 7.99481 4.33343 8.31656Z" fill="#8A38F5"/>
</g>
</svg>
