<svg width="15" height="13" viewBox="0 0 15 13" fill="none" xmlns="http://www.w3.org/2000/svg">
<path d="M1.65193 1.64367C1.35013 1.94285 1.11074 2.29802 0.947407 2.68891C0.784077 3.0798 0.700012 3.49875 0.700012 3.92185C0.700012 4.34495 0.784077 4.7639 0.947407 5.15479C1.11074 5.54568 1.35013 5.90085 1.65193 6.20003L7.20002 11.7L12.7481 6.20003C13.3576 5.59582 13.7 4.77633 13.7 3.92185C13.7 3.06737 13.3576 2.24788 12.7481 1.64367C12.1386 1.03946 11.312 0.70002 10.45 0.70002C9.58805 0.70002 8.7614 1.03946 8.1519 1.64367L7.20002 2.5873L6.24813 1.64367C5.94634 1.3445 5.58806 1.10718 5.19375 0.945262C4.79945 0.783348 4.37683 0.700012 3.95003 0.700012C3.52323 0.700012 3.10061 0.783348 2.7063 0.945262C2.31199 1.10718 1.95372 1.3445 1.65193 1.64367Z" stroke="white" stroke-width="1.4" stroke-linecap="round" stroke-linejoin="round"/>
</svg>
