<svg width="23" height="25" viewBox="0 0 23 25" fill="none" xmlns="http://www.w3.org/2000/svg">
<path d="M3 24.25C2.24375 24.25 1.59658 23.9817 1.0585 23.445C0.5195 22.9074 0.25 22.2614 0.25 21.5071V9.16429C0.25 8.73 0.347625 8.31857 0.542875 7.93C0.737208 7.54143 1.00625 7.22143 1.35 6.97L9.6 0.798572C9.85208 0.615714 10.1156 0.478571 10.3906 0.387143C10.6656 0.295714 10.9521 0.25 11.25 0.25C11.5479 0.25 11.8344 0.295714 12.1094 0.387143C12.3844 0.478571 12.6479 0.615714 12.9 0.798572L21.15 6.97C21.4938 7.22143 21.7633 7.54143 21.9585 7.93C22.1528 8.31857 22.25 8.73 22.25 9.16429V21.5071C22.25 22.2614 21.981 22.9074 21.4429 23.445C20.9039 23.9817 20.2563 24.25 19.5 24.25H14V14.65H8.5V24.25H3Z" fill="white" stroke="#626262" stroke-width="0.5"/>
</svg>
