<svg width="16" height="14" viewBox="0 0 16 14" fill="none" xmlns="http://www.w3.org/2000/svg">
<path d="M15.7591 0.153136C15.5721 -0.00288974 15.3153 -0.043949 15.0877 0.0496663L0.627567 5.99506C0.624316 5.99671 0.621064 5.99835 0.617813 5.99999C0.217904 6.18229 -0.0226912 6.58139 0.00169343 7.01826C0.00169343 7.01991 0.00169343 7.02155 0.00169343 7.02155C0.0293294 7.46171 0.315443 7.82631 0.733234 7.95277L6.20678 9.62471L6.40511 13.3693V13.371C6.42137 13.6403 6.59531 13.8703 6.84891 13.9606C6.91719 13.9869 6.99034 14 7.06837 14C7.2602 14 7.43577 13.9212 7.56419 13.7766L9.40117 11.722L12.0363 13.5648C12.2103 13.6879 12.4119 13.752 12.6232 13.752C13.106 13.752 13.5319 13.4022 13.6327 12.921C13.6327 12.9193 13.6327 12.9177 13.6344 12.916L15.9883 0.800232C16.0338 0.560445 15.9444 0.307519 15.7591 0.153136ZM14.2456 2.81543L12.42 12.2065L7.88282 9.03346L14.2456 2.81543ZM8.30224 10.9518L7.63897 11.6925L7.57395 10.4426L8.30224 10.9518ZM12.6736 2.48695L6.66196 8.36337L1.91183 6.91315L12.6736 2.48695Z" fill="#062D09"/>
</svg>
