<svg width="24" height="24" viewBox="0 0 24 24" fill="none" xmlns="http://www.w3.org/2000/svg">
<path fill-rule="evenodd" clip-rule="evenodd" d="M6.00001 16.2638H18C21.3137 16.2638 24 18.8644 24 22.0723C24 22.7139 23.4628 23.234 22.8 23.234C22.1846 23.234 21.6774 22.7856 21.6081 22.2078L21.5939 21.8676C21.4885 20.1059 20.0313 18.6952 18.2115 18.5932L18 18.5872H6.00001C4.01178 18.5872 2.4 20.1476 2.4 22.0723C2.4 22.7139 1.86274 23.234 1.2 23.234C0.537259 23.234 0 22.7139 0 22.0723C0 18.9488 2.54677 16.4011 5.73974 16.2692L6.00001 16.2638H18H6.00001ZM12 0C15.9765 0 19.2 3.12067 19.2 6.97021C19.2 10.8198 15.9765 13.9404 12 13.9404C8.02356 13.9404 4.80001 10.8198 4.80001 6.97021C4.80001 3.12067 8.02356 0 12 0ZM12 2.3234C9.34904 2.3234 7.20001 4.40385 7.20001 6.97021C7.20001 9.53657 9.34904 11.617 12 11.617C14.651 11.617 16.8 9.53657 16.8 6.97021C16.8 4.40385 14.651 2.3234 12 2.3234Z" fill="#626262"/>
</svg>
