<svg width="17" height="13" viewBox="0 0 17 13" fill="none" xmlns="http://www.w3.org/2000/svg">
<path d="M10.6 0.599976V2.26664M10.6 5.59998V7.26664M10.6 10.6V12.2666M2.26667 0.599976C1.82465 0.599976 1.40072 0.77557 1.08816 1.08813C0.775601 1.40069 0.600006 1.82461 0.600006 2.26664V4.76664C1.04203 4.76664 1.46596 4.94224 1.77852 5.2548C2.09108 5.56736 2.26667 5.99128 2.26667 6.43331C2.26667 6.87534 2.09108 7.29926 1.77852 7.61182C1.46596 7.92438 1.04203 8.09998 0.600006 8.09998V10.6C0.600006 11.042 0.775601 11.4659 1.08816 11.7785C1.40072 12.091 1.82465 12.2666 2.26667 12.2666H13.9333C14.3754 12.2666 14.7993 12.091 15.1119 11.7785C15.4244 11.4659 15.6 11.042 15.6 10.6V8.09998C15.158 8.09998 14.7341 7.92438 14.4215 7.61182C14.1089 7.29926 13.9333 6.87534 13.9333 6.43331C13.9333 5.99128 14.1089 5.56736 14.4215 5.2548C14.7341 4.94224 15.158 4.76664 15.6 4.76664V2.26664C15.6 1.82461 15.4244 1.40069 15.1119 1.08813C14.7993 0.77557 14.3754 0.599976 13.9333 0.599976H2.26667Z" stroke="#94FF31" stroke-width="1.2" stroke-linecap="round" stroke-linejoin="round"/>
</svg>
