<svg width="20" height="16" viewBox="0 0 20 16" fill="none" xmlns="http://www.w3.org/2000/svg">
<path d="M12.6 0.600098V2.6001M12.6 6.6001V8.6001M12.6 12.6001V14.6001M2.60001 0.600098C2.06957 0.600098 1.56087 0.810811 1.18579 1.18588C0.81072 1.56096 0.600006 2.06966 0.600006 2.6001V5.6001C1.13044 5.6001 1.63915 5.81081 2.01422 6.18588C2.38929 6.56096 2.60001 7.06966 2.60001 7.6001C2.60001 8.13053 2.38929 8.63924 2.01422 9.01431C1.63915 9.38938 1.13044 9.6001 0.600006 9.6001V12.6001C0.600006 13.1305 0.81072 13.6392 1.18579 14.0143C1.56087 14.3894 2.06957 14.6001 2.60001 14.6001H16.6C17.1304 14.6001 17.6391 14.3894 18.0142 14.0143C18.3893 13.6392 18.6 13.1305 18.6 12.6001V9.6001C18.0696 9.6001 17.5609 9.38938 17.1858 9.01431C16.8107 8.63924 16.6 8.13053 16.6 7.6001C16.6 7.06966 16.8107 6.56096 17.1858 6.18588C17.5609 5.81081 18.0696 5.6001 18.6 5.6001V2.6001C18.6 2.06966 18.3893 1.56096 18.0142 1.18588C17.6391 0.810811 17.1304 0.600098 16.6 0.600098H2.60001Z" stroke="#062D09" stroke-width="1.2" stroke-linecap="round" stroke-linejoin="round"/>
</svg>
